OpenSim_Sub06_CSStiffKnee_RCS.mot
version=1
nRows=47
nColumns=11
inDegrees=no
endheader
time	Top_Thigh	Med_Thigh	Bot_Thigh	Top_Shank	2nd_Top_Shank	2nd_Bot_Shank	Bot_Shank	BNOx	BNOy	BNOZ
17.91000000	1713.91264996	1987.89036042	1587.60743963	1202.85701019	1279.44049784	1023.67881454	1135.69099395	67.54504383	-73.81838802	-34.10819951
17.92000000	1708.13538744	1983.13041860	1589.47962912	1206.55504655	1279.42956928	1026.50101835	1137.14343853	68.15338599	-73.89573493	4.63144162
17.93000000	1701.68045833	1977.81817203	1591.43681411	1210.12354967	1279.46615682	1029.61468251	1138.37568832	68.72812665	-73.93761870	42.17854283
17.94000000	1695.07836150	1972.38875689	1593.37884465	1213.36013966	1279.54691508	1032.77805537	1139.33040349	69.32787992	-73.95669851	76.92186934
17.95000000	1688.85959581	1967.27730935	1595.20557082	1216.06243662	1279.66849870	1035.74938525	1139.95024423	70.01125992	-73.96563353	107.25018633
17.96000000	1683.55466013	1962.91896559	1596.81684268	1218.02806067	1279.82756231	1038.28692048	1140.17787071	70.83688076	-73.97708293	131.55225902
17.97000000	1679.69389456	1959.74873131	1598.11253803	1219.05470558	1280.02075746	1040.14898015	1139.95597591	71.86333026	-74.00370169	148.21745334
17.98000000	1677.59694019	1958.02845150	1599.02933027	1219.03781012	1280.24065774	1041.18779400	1139.27076014	73.11429767	-74.05256756	156.43231031
17.99000000	1676.95737471	1957.50544768	1599.61322601	1218.16324911	1280.46771955	1041.53463446	1138.23769993	74.50977600	-74.11418634	157.75206828
18.00000000	1677.35302633	1957.83191392	1599.93044585	1216.67059448	1280.68015903	1041.37236463	1136.99617296	75.95058640	-74.17599996	154.16990128
18.01000000	1678.36172326	1958.66004428	1600.04721042	1214.79941819	1280.85619231	1040.88384764	1135.68555693	77.33755003	-74.22545033	147.67898334
18.02000000	1679.56129372	1959.64203282	1600.02974033	1212.78929220	1280.97403552	1040.25194661	1134.44522954	78.57148803	-74.24997937	140.27248849
18.03000000	1680.54684656	1960.44421213	1599.94240596	1210.87092393	1281.01330405	1039.65289214	1133.40865853	79.55818854	-74.23768728	133.86331897
18.04000000	1681.17206070	1960.94446899	1599.82189283	1209.14238144	1280.97455024	1039.16367297	1132.62088150	80.27776033	-74.18652424	129.16327323
18.05000000	1681.48966271	1961.18354503	1599.68357460	1207.59962668	1280.87444374	1038.78488122	1132.05886231	80.76752437	-74.10202298	125.95953764
18.06000000	1681.55749941	1961.20637110	1599.54227670	1206.23599510	1280.73006880	1038.51514381	1131.69781372	81.06627332	-73.98991125	124.01551436
18.07000000	1681.43341759	1961.05787801	1599.41282456	1205.04482216	1280.55850965	1038.35308768	1131.51294851	81.21279983	-73.85591683	123.09460552
18.08000000	1681.17526404	1960.78299660	1599.31004362	1204.01944329	1280.37685055	1038.29733977	1131.47947944	81.24589658	-73.70576748	122.96021327
18.09000000	1680.84088556	1960.42665768	1599.24875932	1203.15319394	1280.20217574	1038.34652701	1131.57261929	81.20435622	-73.54519096	123.37573974
18.10000000	1680.48812895	1960.03379210	1599.24379709	1202.43940956	1280.05156946	1038.49927632	1131.76758083	81.12697142	-73.37991504	124.10458710
18.11000000	1680.17484101	1959.64933067	1599.30998237	1201.87142559	1279.94211595	1038.75421465	1132.03957682	81.05253482	-73.21566749	124.91015746
18.12000000	1679.95886853	1959.31820423	1599.46214060	1201.44257748	1279.89089947	1039.10996893	1132.36382004	81.01983911	-73.05817607	125.55585300
18.13000000	1679.89805831	1959.08534360	1599.71509720	1201.14620068	1279.91500425	1039.56516610	1132.71552325	81.06767693	-72.91316855	125.80507583
18.14000000	1680.04992306	1958.99543181	1600.08342801	1200.97559182	1280.03147792	1040.11833469	1133.06991756	81.23471841	-72.78635691	125.42194669
18.15000000	1680.40115223	1959.04061841	1600.52879375	1200.91581859	1280.24960460	1040.74714551	1133.40611993	81.53365524	-72.68010611	124.32292512
18.16000000	1680.78041910	1959.09584381	1600.89479449	1200.93358890	1280.56134697	1041.38273296	1133.71191720	81.91921781	-72.58931353	122.76435867
18.17000000	1680.99501634	1959.02018923	1601.00905593	1200.99312644	1280.95632405	1041.94993478	1133.97626931	82.33829396	-72.50786611	121.04858396
18.18000000	1680.88374156	1958.69584942	1600.73293430	1201.05954271	1281.41887694	1042.38441700	1134.18880424	82.74451648	-72.43014590	119.43835887
18.19000000	1680.45579563	1958.13003490	1600.11022679	1201.10275127	1281.90479978	1042.68041372	1134.34276323	83.12800010	-72.35321281	117.98236848
18.20000000	1679.77772792	1957.37202975	1599.24613036	1201.09428177	1282.36027937	1042.85186982	1134.43260354	83.49113739	-72.27502799	116.65725257
18.21000000	1678.91613102	1956.47114974	1598.24588820	1201.00566511	1282.73149527	1042.91274508	1134.45278338	83.83633017	-72.19355326	115.43959666
18.22000000	1677.93759751	1955.47671064	1597.21474353	1200.80843216	1282.96462702	1042.87699924	1134.39776093	84.16598025	-72.10675045	114.30598623
18.23000000	1676.90871997	1954.43802823	1596.25793956	1200.47411378	1283.00585418	1042.75859205	1134.26199438	84.48248947	-72.01258137	113.23300679
18.24000000	1675.89609099	1953.40441827	1595.48071949	1199.97424088	1282.80135630	1042.57148328	1134.03994192	84.78825963	-71.90900786	112.19724385
18.25000000	1674.96630316	1952.42519655	1594.98832654	1199.28034431	1282.29731293	1042.32963267	1133.72606175	85.08569257	-71.79399173	111.17528289
18.26000000	1674.18594905	1951.54967883	1594.88600391	1198.36395497	1281.43990363	1042.04699999	1133.31481205	85.37719009	-71.66549481	110.14370942
18.27000000	1673.62162126	1950.82718089	1595.27899482	1197.19660372	1280.17530795	1041.73754499	1132.80065101	85.66515403	-71.52147893	109.07910895
18.28000000	1673.33991237	1950.30701850	1596.27254247	1195.74982146	1278.44970545	1041.41522742	1132.17803682	85.95198619	-71.35990589	107.95806696
18.29000000	1673.40741496	1950.03850744	1597.97189007	1193.99513904	1276.20927567	1041.09400703	1131.44142768	86.24008841	-71.17873754	106.75716897
18.30000000	1673.89072161	1950.07096347	1600.48228083	1191.90408737	1273.40019817	1040.78784359	1130.58528177	86.53186250	-70.97593569	105.45300046
18.31000000	1674.85642492	1950.45370238	1603.90895797	1189.44819730	1269.96865250	1040.51069685	1129.60405728	86.82971028	-70.74946216	104.02214695
18.32000000	1676.37111747	1951.23603993	1608.35716469	1186.59899973	1265.86081821	1040.27652656	1128.49221241	87.13603358	-70.49727879	102.44119392
18.33000000	1678.50139184	1952.46729191	1613.93214419	1183.32802553	1261.02287486	1040.09929248	1127.24420534	87.45323421	-70.21734738	100.68672689
18.34000000	1681.31371142	1954.19669477	1620.73886203	1179.60693824	1255.40118946	1039.99294665	1125.85452383	87.78372214	-69.90762264	98.73537464
18.35000000	1684.70310117	1956.36824404	1628.51380859	1175.58344719	1249.19087830	1039.96121244	1124.35688195	88.14071979	-69.55658910	96.62121316
18.36000000	1688.05517999	1958.61322613	1635.89860058	1171.92835779	1243.32618241	1039.97742005	1122.90154948	88.56957730	-69.12459213	94.54901497
18.37000000	1690.66534343	1960.50745554	1641.34132483	1169.40485033	1238.87206792	1040.00942662	1121.65938622	89.12125094	-68.56711259	92.75339929
